<svg xmlns="http://www.w3.org/2000/svg">
    <symbol width="15" height="13" viewBox="0 0 15 13" fill="none" xmlns="http://www.w3.org/2000/svg" id="mail">
        <g clip-path="url(#clip0)">
            <path
                d="M12.6108 12.3004H2.25773C1.37772 12.3004 0.664948 11.5806 0.664948 10.692V2.64992C0.664948 1.76127 1.37772 1.0415 2.25773 1.0415H12.6108C13.4908 1.0415 14.2036 1.76127 14.2036 2.64992V10.692C14.2036 11.5806 13.4908 12.3004 12.6108 12.3004Z"
                stroke-width="1.5" stroke-miterlimit="10" />
            <path d="M0.664948 2.6499L7.43426 6.67093L14.2036 2.6499" stroke-width="1.5"
                stroke-miterlimit="10" />
        </g>
    </symbol>
    <symbol viewBox="0 0 34 34" fill="none" xmlns="http://www.w3.org/2000/svg" id="circle">
        <mask id="mask0" mask-type="alpha" maskUnits="userSpaceOnUse" x="0" y="0" width="34" height="34">
            <circle cx="17" cy="17" r="17" fill="#C4C4C4" />
        </mask>
        <g mask="url(#mask0)">
            <path d="M38 -0.715088L16.707 -0.715088L16.707 35.9048L38 35.9048V-0.715088Z" fill="#FFDA00" />
            <path fill-rule="evenodd" clip-rule="evenodd"
                d="M15.7044 -0.715088L11.5287 -0.715088L-4.55206 -0.715088L-4.55206 35.7645H11.5287L15.7044 35.7645H16.7071L16.7071 -0.715088L15.7044 -0.715088Z"
                fill="#0A0C06" />
        </g>
    </symbol>
    <symbol xmlns="http://www.w3.org/2000/svg" viewBox="0 0 17 17" fill="none" id="circle-small">
        <mask id="mask0" mask-type="alpha" maskUnits="userSpaceOnUse" x="0" y="0" width="17" height="17">
        <circle cx="8.5" cy="8.5" r="8.5" fill="#C4C4C4"/>
        </mask>
        <g mask="url(#mask0)">
        <path d="M20.1213 -2.26672L8.91846 -2.26672L8.91846 16.9999L20.1213 16.9999V-2.26672Z" fill="#FBDA1B"/>
        <path fill-rule="evenodd" clip-rule="evenodd" d="M8.39088 -2.26648L6.19394 -2.26648L-2.2666 -2.26648L-2.2666 16.9261L6.19394 16.9261H8.39088H8.91841L8.91841 -2.26648H8.39088Z" fill="black"/>
        </g>
    </symbol>
    <symbol width="17" height="17" viewBox="0 0 17 17" fill="none" xmlns="http://www.w3.org/2000/svg" id="phone">
        <g clip-path="url(#clip0)">
            <path
                d="M15.6057 12.7247L12.2244 10.369C11.748 10.0397 11.0511 10.1591 10.7205 10.6223L9.84225 11.8852C9.78891 11.9612 9.74625 12.048 9.7178 12.1385C9.60403 12.2145 9.40137 12.3049 9.1027 12.3049C8.61205 12.3049 7.77295 12.0516 6.5783 10.8358C4.59434 8.81663 4.58012 7.93008 4.84678 7.24979C4.91078 7.22084 4.97122 7.18465 5.02455 7.14123L6.23698 6.20764C6.69919 5.85302 6.79163 5.16187 6.43964 4.66612L4.01479 1.30447C3.53125 0.631411 2.93748 0.555421 2.31527 1.09821C1.93839 1.43112 1.31262 2.22358 1.05662 2.69762C0.910848 2.95816 0.84685 3.22955 0.871738 3.50094C-0.269575 8.04587 3.10814 11.7983 4.17479 12.8477C7.0903 15.7173 9.79603 16.3035 11.556 16.3035C12.5551 16.3035 13.2769 16.1225 13.5968 15.985C13.8457 15.9923 14.0982 15.9271 14.3399 15.7788C14.8022 15.5001 15.5595 14.8416 15.8688 14.4471C16.1248 14.1251 16.2279 13.8247 16.1817 13.528C16.139 13.2277 15.9506 12.9635 15.6057 12.7247ZM15.3142 13.9984C15.0582 14.3241 14.3613 14.9356 13.9737 15.1672C13.8315 15.2541 13.6964 15.2903 13.5684 15.2758C13.4973 15.2686 13.4297 15.283 13.3657 15.3156C13.2164 15.3952 12.5658 15.6159 11.5524 15.6159C9.92402 15.6159 7.41029 15.0478 4.66545 12.3447C3.66991 11.3605 0.4913 7.82152 1.57573 3.62036C1.58639 3.57331 1.58995 3.52265 1.58284 3.47561C1.56506 3.33811 1.5935 3.2006 1.67528 3.05224C1.89216 2.6542 2.46815 1.91962 2.77748 1.64823C2.90904 1.53244 3.02992 1.4673 3.1117 1.4673C3.22547 1.4673 3.35703 1.61566 3.44591 1.7387L5.86721 5.10035C5.99165 5.27766 5.96676 5.51649 5.81032 5.6359L4.59434 6.57311C4.57301 6.59121 4.54456 6.60206 4.5019 6.61292C4.39523 6.63825 4.30634 6.71424 4.26368 6.81194C3.74813 7.95179 3.87257 9.10974 6.08054 11.3533C7.17563 12.4678 8.19605 13.0359 9.10626 13.0359C9.7178 13.0359 10.0982 12.779 10.2725 12.627C10.3365 12.5691 10.3791 12.4931 10.3898 12.4063C10.3969 12.3665 10.4076 12.3339 10.4253 12.3086L11.3 11.0457C11.4102 10.8901 11.6555 10.8539 11.8227 10.9697L15.2039 13.3218C15.371 13.4376 15.467 13.5461 15.4777 13.6366C15.4919 13.7198 15.435 13.8501 15.3142 13.9984Z"
                stroke-width="0.5" />
        </g>
    </symbol>
    <symbol width="15" height="16" viewBox="0 0 15 16" fill="none" xmlns="http://www.w3.org/2000/svg" id="geo">
        <g clip-path="url(#clip0)">
            <path
                d="M7.23012 12.2141C7.28327 12.2737 7.35878 12.3078 7.43989 12.3078C7.52101 12.3135 7.59652 12.2737 7.64967 12.2113C7.74476 12.1006 10.0215 9.45855 11.2773 6.53837C11.5542 5.95377 11.694 5.33227 11.694 4.69374C11.694 2.32127 9.78093 0.388672 7.42591 0.388672C5.07368 0.388672 3.15778 2.31843 3.15778 4.69374C3.15778 5.34362 3.29483 5.96512 3.56333 6.52986C4.82196 9.45855 7.13223 12.1035 7.23012 12.2141ZM7.42311 0.959087C9.46768 0.959087 11.1319 2.63628 11.1319 4.69658C11.1319 5.24997 11.0116 5.78917 10.7655 6.30566C9.75856 8.64408 8.03005 10.8605 7.4371 11.5898C6.83576 10.8633 5.08207 8.64408 4.07238 6.29715C3.83743 5.79768 3.71716 5.26132 3.71716 4.69658C3.71716 2.63344 5.37855 0.959087 7.42311 0.959087Z"
                stroke-width="0.5" />
            <path
                d="M7.42309 6.70032C8.53907 6.70032 9.44807 5.77801 9.44807 4.64569C9.44807 3.51338 8.53907 2.59106 7.42309 2.59106C6.30711 2.59106 5.3981 3.51338 5.3981 4.64569C5.4009 5.77801 6.30711 6.70032 7.42309 6.70032ZM7.42309 3.16148C8.23141 3.16148 8.88869 3.82838 8.88869 4.64853C8.88869 5.46868 8.23141 6.13558 7.42309 6.13558C6.61477 6.13558 5.95749 5.46868 5.95749 4.64853C5.95749 3.82838 6.61757 3.16148 7.42309 3.16148Z"
                stroke-width="0.5" />
            <path
                d="M14.7007 15.3587L13.0226 8.8316C13.0002 8.74362 12.9386 8.67268 12.8547 8.63862L11.4563 8.07104L11.2493 8.59889L12.5163 9.11255L14.0043 14.8962L11.1989 13.4744C11.1234 13.4346 11.0339 13.4346 10.9556 13.4715L7.43706 15.1204L3.91851 13.4715C3.84299 13.4346 3.75349 13.4375 3.67518 13.4744L0.872639 14.899L2.36061 9.11539L3.62763 8.60173L3.42065 8.07388L2.02218 8.64146C1.94107 8.67551 1.87674 8.74646 1.85437 8.83444L0.176201 15.3616C0.148231 15.4694 0.184591 15.5829 0.271297 15.6539C0.358002 15.7248 0.475473 15.7362 0.573366 15.6879L3.80943 14.0448L7.32239 15.6908C7.3979 15.7248 7.48181 15.7248 7.55733 15.6908L11.0703 14.0448L14.3064 15.6879C14.3455 15.7078 14.3903 15.7191 14.4322 15.7191C14.4937 15.7191 14.5581 15.6964 14.6084 15.6567C14.6923 15.5801 14.7287 15.4666 14.7007 15.3587Z"
                stroke-width="0.5" />
        </g>
    </symbol>
    <symbol viewBox="0 0 8 14" xmlns="http://www.w3.org/2000/svg" id="arrow">
        <path
            d="M7.54 6.29001L1.88 0.640006C1.78704 0.546278 1.67644 0.471884 1.55458 0.421115C1.43272 0.370346 1.30201 0.344208 1.17 0.344208C1.03799 0.344208 0.907283 0.370346 0.785424 0.421115C0.663565 0.471884 0.552964 0.546278 0.460001 0.640006C0.27375 0.827368 0.169209 1.08082 0.169209 1.34501C0.169209 1.60919 0.27375 1.86264 0.460001 2.05001L5.41 7.05001L0.460001 12C0.27375 12.1874 0.169209 12.4408 0.169209 12.705C0.169209 12.9692 0.27375 13.2226 0.460001 13.41C0.552616 13.5045 0.663061 13.5797 0.784936 13.6312C0.906811 13.6827 1.03769 13.7095 1.17 13.71C1.30231 13.7095 1.43319 13.6827 1.55507 13.6312C1.67694 13.5797 1.78739 13.5045 1.88 13.41L7.54 7.76001C7.64151 7.66636 7.72251 7.55271 7.77792 7.42621C7.83333 7.29971 7.86193 7.16311 7.86193 7.02501C7.86193 6.8869 7.83333 6.7503 7.77792 6.6238C7.72251 6.4973 7.64151 6.38365 7.54 6.29001Z"
            />
    </symbol>
</svg>